<svg xmlns="http://www.w3.org/2000/svg" width="16" height="16" viewBox="0 0 16 16" shape-rendering="crispEdges"><path fill="#3e8948" d="M5 1h6v1h-6zM4 2h1v1h-1zM11 2h1v1h-1zM3 3h1v1h-1zM12 3h1v1h-1zM2 4h1v1h-1zM13 4h1v1h-1zM2 5h1v1h-1zM13 5h1v1h-1zM1 6h1v1h-1zM14 6h1v1h-1zM5 13h6v1h-6z"/><path fill="#63c74d" d="M5 2h6v1h-6zM4 3h8v1h-8zM3 4h10v1h-10zM3 5h2v1h-2zM11 5h2v1h-2zM2 6h2v1h-2zM5 6h6v1h-6zM12 6h2v1h-2zM2 7h12v1h-12zM2 8h4v1h-4zM10 8h4v1h-4zM2 9h3v1h-3zM6 9h4v1h-4zM11 9h3v1h-3zM3 10h10v1h-10zM3 11h4v1h-4zM9 11h4v1h-4zM4 12h2v1h-2zM7 12h2v1h-2zM10 12h2v1h-2z"/><path fill="#181425" d="M5 5h6v1h-6zM4 6h1v1h-1zM11 6h1v1h-1zM6 8h4v1h-4zM5 9h1v1h-1zM10 9h1v1h-1zM7 11h2v1h-2zM6 12h1v1h-1zM9 12h1v1h-1z"/><path fill="#265c42" d="M1 7h1v1h-1zM14 7h1v1h-1zM1 8h1v1h-1zM14 8h1v1h-1zM1 9h1v1h-1zM14 9h1v1h-1zM2 10h1v1h-1zM13 10h1v1h-1zM2 11h1v1h-1zM13 11h1v1h-1zM3 12h1v1h-1zM12 12h1v1h-1zM4 13h1v1h-1zM11 13h1v1h-1zM5 14h6v1h-6z"/></svg>
