<svg xmlns="http://www.w3.org/2000/svg" width="16" height="16" viewBox="0 0 16 16" shape-rendering="crispEdges"><path fill="#262b44" d="M1 0h6v1h-6zM0 1h1v1h-1zM7 1h1v1h-1zM0 2h1v1h-1zM7 2h9v1h-9zM0 3h1v1h-1zM15 3h1v1h-1zM0 4h1v1h-1zM15 4h1v1h-1zM0 5h1v1h-1zM15 5h1v1h-1zM0 6h1v1h-1zM15 6h1v1h-1zM0 7h1v1h-1zM15 7h1v1h-1zM0 8h1v1h-1zM15 8h1v1h-1zM0 9h1v1h-1zM15 9h1v1h-1zM0 10h1v1h-1zM15 10h1v1h-1zM0 11h1v1h-1zM15 11h1v1h-1zM0 12h1v1h-1zM15 12h1v1h-1zM0 13h1v1h-1zM15 13h1v1h-1zM0 14h1v1h-1zM15 14h1v1h-1zM1 15h14v1h-14z"/><path fill="#124e89" d="M1 1h6v1h-6zM1 2h6v1h-6zM1 3h14v1h-14zM1 4h5v1h-5zM1 14h14v1h-14z"/><path fill="#ffffff" d="M6 4h9v1h-9zM1 5h14v1h-14z"/><path fill="#0099db" d="M1 6h14v1h-14zM1 7h14v1h-14zM1 8h14v1h-14zM1 9h14v1h-14zM1 10h14v1h-14zM1 11h14v1h-14zM1 12h14v1h-14zM1 13h14v1h-14z"/></svg>
